Coordinates
version=1
nRows=29
nColumns=24
inDegrees=yes

Units are S.I. units (second, meters, Newtons, ...)
Angles are in degrees.

endheader
time	pelvis_tilt	pelvis_list	pelvis_rotation	pelvis_tx	pelvis_ty	pelvis_tz	hip_flexion_r	hip_adduction_r	hip_rotation_r	knee_angle_r	ankle_angle_r	subtalar_angle_r	mtp_angle_r	hip_flexion_l	hip_adduction_l	hip_rotation_l	knee_angle_l	ankle_angle_l	subtalar_angle_l	mtp_angle_l	lumbar_extension	lumbar_bending	lumbar_rotation
      1.74000000	     14.47914723	     -7.74824948	      2.88329093	     -0.31901885	      0.96234808	     -0.01617151	      3.09991920	      7.71497914	    -15.90341368	    -20.33614153	     12.55404056	    -17.54558729	     23.12084487	    -19.94925911	     -4.95986353	     -9.53418443	    -10.17592096	     25.65916697	     -3.88516118	      9.91240395	    -25.71552191	      8.39827914	      0.27966967
      1.74500000	     14.67699643	     -7.82974442	      3.17749256	     -0.31324990	      0.96172832	     -0.01611613	      2.52311081	      7.97568264	    -16.66896293	    -17.82903004	     12.15897947	    -16.49394325	     23.64985731	    -20.44113951	     -5.19492785	     -9.50342472	    -10.32210897	     26.02054459	     -3.63707061	      9.71806461	    -25.84252841	      8.59183684	      0.12530439
      1.75000000	     14.83605275	     -7.88404090	      3.45878129	     -0.30745869	      0.96098388	     -0.01596629	      1.96918564	      8.24160378	    -17.39810894	    -15.28301772	     11.52692844	    -15.57994826	     25.66479066	    -20.86621598	     -5.41597396	     -9.54618082	    -10.53337314	     26.53948612	     -3.23204069	      8.92795032	    -25.92238643	      8.74783250	     -0.06823335
      1.75500000	     14.98386992	     -7.86824901	      3.72789994	     -0.30168108	      0.96016501	     -0.01582056	      1.45784255	      8.43126101	    -18.21308948	    -12.86253086	     11.13411999	    -14.25416773	     25.87584261	    -21.29863692	     -5.55033828	     -9.47650049	    -10.69210091	     26.85435372	     -3.09407879	      8.90789108	    -25.99423887	      8.83070625	     -0.28895520
      1.76000000	     15.10198970	     -7.82641638	      3.94578638	     -0.29590381	      0.95922982	     -0.01556155	      0.99526537	      8.60915832	    -18.98418036	    -10.51746369	     10.73870890	    -12.83630583	     26.28210943	    -21.69727751	     -5.65104405	     -9.46738983	    -10.87709796	     27.24559090	     -2.87201085	      8.85859028	    -26.03891191	      8.86316321	     -0.44388588
      1.76500000	     15.15276639	     -7.73374828	      4.13853077	     -0.29015481	      0.95815748	     -0.01523091	      0.63696376	      8.73930204	    -19.74477815	     -8.28580060	     10.34332692	    -11.37947740	     26.77357765	    -22.00740734	     -5.69652753	     -9.44248539	    -11.09675247	     27.60766275	     -2.66394869	      8.78892237	    -26.01534514	      8.83143577	     -0.62516492
      1.77000000	     15.14364545	     -7.60123397	      4.28664703	     -0.28445199	      0.95696459	     -0.01480320	      0.39320137	      8.82379642	    -20.49308156	     -6.21247453	      9.97312055	     -9.86588719	     27.34174206	    -22.24602291	     -5.68886561	     -9.42544519	    -11.33860990	     27.97480707	     -2.48508152	      8.69938168	    -25.93795377	      8.73585524	     -0.79724529
      1.77500000	     15.08628525	     -7.44835699	      4.40518218	     -0.27879851	      0.95566937	     -0.01431505	      0.24183766	      8.88353454	    -21.19308762	     -4.27795113	      9.62394432	     -8.35761092	     27.92004489	    -22.41912142	     -5.65302381	     -9.40142334	    -11.61172518	     28.34233141	     -2.32231031	      8.60294061	    -25.81867721	      8.60808750	     -0.94990901
      1.78000000	     14.97255662	     -7.24837313	      4.52252199	     -0.27326684	      0.95428667	     -0.01378288	      0.19523248	      8.88881257	    -21.84120150	     -2.48229980	      9.25583801	     -6.98588532	     28.32615523	    -22.48979445	     -5.57625735	     -9.31833488	    -11.95561346	     28.74631678	     -2.13724342	      8.56134222	    -25.65398458	      8.42533180	     -1.13742459
      1.78500000	     14.84483227	     -7.06318969	      4.58068024	     -0.26769220	      0.95287120	     -0.01318010	      0.19596971	      8.89670528	    -22.44591347	     -0.83897299	      8.98263965	     -5.49439458	     28.78393118	    -22.57285517	     -5.48926591	     -9.29736017	    -12.26901835	     29.07888032	     -2.01194852	      8.49634401	    -25.47780699	      8.23918863	     -1.24951474
      1.79000000	     14.68010547	     -6.87272815	      4.63685931	     -0.26216824	      0.95139477	     -0.01251572	      0.26602496	      8.89521076	    -22.97139704	      0.68142257	      8.69506412	     -4.19653452	     29.14176030	    -22.59304434	     -5.40366792	     -9.26042012	    -12.62371421	     29.44919014	     -1.88587987	      8.46278928	    -25.26800843	      8.03999535	     -1.36681997
      1.79500000	     14.49938455	     -6.67859645	      4.67209359	     -0.25665689	      0.94991676	     -0.01183587	      0.37927136	      8.87399468	    -23.44472537	      2.06307308	      8.44710020	     -2.91591494	     29.48156629	    -22.59571197	     -5.30521397	     -9.22571415	    -12.98507591	     29.77335369	     -1.76976047	      8.43453877	    -25.04652415	      7.83387085	     -1.46617134
      1.80000000	     14.31105262	     -6.48983723	      4.70084575	     -0.25115317	      0.94843989	     -0.01113043	      0.52071903	      8.84679509	    -23.84663768	      3.31658111	      8.20984738	     -1.77375045	     29.76783707	    -22.58705203	     -5.21242740	     -9.18662194	    -13.35485204	     30.08176725	     -1.66406692	      8.42623124	    -24.82000135	      7.62954402	     -1.55193538
      1.80500000	     14.11172243	     -6.32060691	      4.73690315	     -0.24563584	      0.94696650	     -0.01042766	      0.68523147	      8.82706980	    -24.17002313	      4.45582687	      7.97476021	     -0.79821183	     29.96824750	    -22.55812066	     -5.14517805	     -9.14467587	    -13.74184491	     30.38257107	     -1.56232553	      8.45010931	    -24.57942838	      7.45140463	     -1.64418000
      1.81000000	     13.94725166	     -6.14447955	      4.76603744	     -0.24011268	      0.94557010	     -0.00973690	      0.83586871	      8.78013486	    -24.47137527	      5.43568359	      7.80818429	      0.16342915	     30.17398014	    -22.57757627	     -5.06761297	     -9.08748376	    -14.11235902	     30.63647848	     -1.45683856	      8.49362929	    -24.38093402	      7.26729062	     -1.70895401
      1.81500000	     13.76444148	     -6.01206313	      4.81867600	     -0.23453548	      0.94418654	     -0.00906489	      0.99835096	      8.76846481	    -24.66131474	      6.33352070	      7.58931910	      0.84495237	     30.27415608	    -22.56859596	     -5.04775825	     -9.01365951	    -14.49949681	     30.84357813	     -1.35288662	      8.55723088	    -24.15325058	      7.14061647	     -1.77642578
      1.82000000	     13.62486561	     -5.87385251	      4.88127795	     -0.22893552	      0.94289107	     -0.00844032	      1.15158664	      8.72544391	    -24.91886676	      7.03639068	      7.49056296	      1.62218130	     30.41528507	    -22.61265240	     -5.02514809	     -8.93637003	    -14.87563355	     31.09709900	     -1.24635968	      8.67434764	    -23.97157626	      7.01662189	     -1.86961269
      1.82500000	     13.51645006	     -5.76891697	      4.96201461	     -0.22326874	      0.94168204	     -0.00787086	      1.26466476	      8.70339675	    -25.09919068	      7.63748679	      7.37078533	      2.21905355	     30.52329143	    -22.70050660	     -5.04244631	     -8.83668856	    -15.23398986	     31.27491130	     -1.14926737	      8.82637124	    -23.81516275	      6.94418144	     -1.94990943
      1.83000000	     13.42308876	     -5.69476638	      5.06517272	     -0.21754120	      0.94054827	     -0.00733461	      1.36283253	      8.69699457	    -25.21315584	      8.11898803	      7.23576851	      2.62001128	     30.58402860	    -22.80611671	     -5.10281098	     -8.71327740	    -15.58820009	     31.39907905	     -1.03984554	      8.96865678	    -23.66717051	      6.91555883	     -2.02464364
      1.83500000	     13.37586130	     -5.64336992	      5.19318754	     -0.21175130	      0.93951500	     -0.00686963	      1.43711089	      8.69430597	    -25.39890857	      8.42806001	      7.19226241	      3.08390616	     30.69644618	    -22.96314466	     -5.19800308	     -8.59867124	    -15.93813941	     31.54872753	     -0.93272688	      9.24372606	    -23.56197385	      6.92876423	     -2.13231124
      1.84000000	     13.34050565	     -5.59580452	      5.28216566	     -0.20591263	      0.93856581	     -0.00639086	      1.48004358	      8.67312996	    -25.34879789	      8.64595805	      7.06358404	      3.23861816	     30.70968548	    -23.16284077	     -5.27390082	     -8.46411838	    -16.24307286	     31.61078024	     -0.88231640	      9.31923109	    -23.47103452	      6.93855566	     -2.18782488
      1.84500000	     13.35127935	     -5.61291500	      5.50579364	     -0.19999146	      0.93772118	     -0.00609605	      1.49035799	      8.71403708	    -25.49087168	      8.73627644	      6.95913952	      3.35097317	     30.75600253	    -23.37225860	     -5.48068654	     -8.24435472	    -16.59542131	     31.69068051	     -0.73385810	      9.50781073	    -23.40527068	      7.07304372	     -2.34555093
      1.85000000	     13.38875786	     -5.65165811	      5.71176087	     -0.19397457	      0.93696959	     -0.00580361	      1.48282596	      8.75867261	    -25.59548208	      8.68379276	      6.88939223	      3.44393443	     30.83111587	    -23.62948154	     -5.70416581	     -8.06389329	    -16.92096262	     31.72045838	     -0.60556699	      9.76192302	    -23.35816134	      7.22965538	     -2.46925693
      1.85500000	     13.47697812	     -5.69478604	      5.92863900	     -0.18788146	      0.93636561	     -0.00556177	      1.43061539	      8.79686988	    -25.76020065	      8.50832974	      6.77560240	      3.59733762	     31.64700214	    -23.95966253	     -5.93291612	     -7.83645660	    -17.19444986	     31.41497516	     -0.67478321	     12.11592337	    -23.36143354	      7.40290201	     -2.58082699
      1.86000000	     13.55357270	     -5.78408371	      6.15790447	     -0.18175928	      0.93576888	     -0.00534130	      1.38946665	      8.86422264	    -25.74278941	      8.23683733	      6.65581261	      3.40647004	     31.65444328	    -24.24921364	     -6.21979619	     -7.62182782	    -17.53624564	     31.42326614	     -0.56403789	     12.19574292	    -23.34304583	      7.63524398	     -2.71400098
      1.86500000	     13.69401886	     -5.90291843	      6.36859170	     -0.17553506	      0.93530263	     -0.00504130	      1.23963883	      8.97690264	    -25.54682652	      7.96151220	      6.35993477	      2.89848291	     31.99258406	    -24.61718788	     -6.55388153	     -7.51427905	    -17.87316329	     31.30820990	     -0.31286592	     13.01893703	    -23.38733870	      7.89157252	     -2.78792642
      1.87000000	     13.79455795	     -6.01641475	      6.68217979	     -0.16935363	      0.93486673	     -0.00494166	      1.18422043	      9.05368425	    -25.59363745	      7.51926703	      6.13298595	      2.62948947	     32.07145228	    -24.87991156	     -6.90346893	     -7.14623095	    -18.27963817	     31.19216158	     -0.26587376	     13.23764543	    -23.37932293	      8.18514352	     -2.97762180
      1.87500000	     13.92746063	     -6.16484964	      6.98217632	     -0.16309758	      0.93452872	     -0.00479884	      1.08234442	      9.17124504	    -25.51439338	      7.03532392	      5.79864439	      2.12006102	     32.21639559	    -25.17187907	     -7.29771235	     -6.85194136	    -18.70215267	     31.04025318	     -0.13926571	     13.65587478	    -23.39824330	      8.51468910	     -3.13819579
      1.88000000	     14.01656463	     -6.31047351	      7.18233023	     -0.15684507	      0.93420215	     -0.00453366	      1.05324414	      9.26361933	    -25.20175526	      6.43905005	      5.32389773	      1.20166212	     33.70336865	    -25.43379940	     -7.63696183	     -6.60824130	    -19.09100996	     30.56273035	     -0.28300711	     16.45818964	    -23.38596134	      8.80629107	     -3.21992316
